<svg xmlns="http://www.w3.org/2000/svg" xmlns:xlink="http://www.w3.org/1999/xlink" id="Layer_1" width="16" height="16" x="0" y="0" enable-background="new 0 0 16 16" version="1.1" viewBox="0 0 16 16" xml:space="preserve"><rect width="2" height="10" x="7" y="3" fill="#36B936"/><rect width="10" height="2" x="3" y="7" fill="#36B936"/><g><path fill="#CCC" d="M8,15.88c-4.345,0-7.879-3.535-7.879-7.88S3.655,0.121,8,0.121S15.88,3.655,15.88,8S12.345,15.88,8,15.88 L8,15.88z M8,1.047C4.167,1.047,1.047,4.167,1.047,8c0,3.834,3.119,6.952,6.953,6.952c3.834,0,6.952-3.118,6.952-6.952 C14.952,4.167,11.834,1.047,8,1.047L8,1.047z"/></g></svg>